<?xml version="1.0" encoding="UTF-8"?>
<svg id="Capa_1" xmlns="http://www.w3.org/2000/svg" version="1.1" viewBox="0 0 1080 1080">
  <!-- Generator: Adobe Illustrator 29.7.1, SVG Export Plug-In . SVG Version: 2.1.1 Build 8)  -->
  <defs>
    <style>
      .st0 {
        fill: #ceaa84;
      }
    </style>
  </defs>
  <path class="st0" d="M123.9,429.1c1.3-9.4,9.6-22.6,17.6-27.9,21.4-14.3,73-13.3,97.4-7,39.5,10.1,27.8,46.3,32.4,77.7l41.9-1.8v30.9l9.1-13.6c10.2-12.3,24.6-19,40.9-17.3,4.8.5,8.6,3,12.9,3.5,18.1,2.1,40.4-4.6,59-3.5v30.9l9.1-13.6c15.3-20.8,55.4-26.5,65.9,1.4.6,1.7,3.3,10.5,3.3,11.3v104.6h-29.1v-88.3c0-.7-2.2-12.5-2.6-13.8-4.5-14.2-20.2-13.2-30-4.3-4.7,4.3-16.6,24.9-16.6,30.8v75.5h-29.1v-99.2c0-8.3-8.4-14.3-16.4-13.6l1.8,112.8h-29.1v-88.3c0-2.9-4.3-18.5-6.4-20.9-10.3-11.6-27.2,2.2-33.3,12.1-2.4,4-9.4,19.6-9.4,23.3v73.7h-29.1v-101c0-4.3-7.4-12.6-12.7-11.8v114.7h-51v-25.5c-13.9,16.4-29.8,28.5-52.1,30.7-73.4,7.3-102.6-79.2-38.9-115.4,28.4-16.1,59.1-17.2,90.8-21.2-1.6-30.5,12.2-72.8-34.8-64.8-24.2,4.1-23.8,29.1-25,48.7h-36.4c.9-9.4-1.3-20.9,0-30ZM220.4,497.4c-39.3-2.2-84.7,20.1-67.4,66.5,12.8,34.4,51.9,17.6,62.3-10.7,1.3-3.7,5.1-17.4,5.1-20.4v-35.5Z"/>
  <path class="st0" d="M818.9,472.1l23,90.8,28.4-90.8,14.6.9,30.8,88.1,20.1-89.1h16.3c0,0-27.5,128.9-27.5,128.9h-23.2c0,0-28.4-81.7-28.4-81.7l-26.6,81.7h-23.3s-24.8-98.1-24.8-98.1c-1.8-3.1-3.8-7.6-6.5-9.9-3.2-2.7-14.5-8.2-18.1-7.4,19.6,21,20,76.4,3.6,98.3-19,25.4-71.1,25.8-90.9,1.8-18.8-22.8-18.9-86.3,4.5-106.4,26.4-22.8,94.6-4.2,128.1-7ZM727.7,479.5c-3.7.6-10.6,4.3-13.1,7.1-13.4,15.3-12.4,67.2-6,85.8,9.1,26.3,37.9,23.8,45.5-2.6,6-20.8,9.2-95.6-26.4-90.3Z"/>
  <path class="st0" d="M578.9,391.8v83.7c16.1-23.3,52.6-23.8,71-2.8,20.9,24,21.4,85.6,4.4,111.8-17.7,27.4-58,26.8-78.1,2.3-10.5,6-14.1,17.6-28.2,14.2v-177.4c0-2.9-3.8-9.8-6.3-11.9-7.1-5.8-17.8-.3-15.4-12.6l52.7-7.4ZM598.4,477.8c-26.3,6-22.8,82.3-10.1,100.3,12,17.1,32.6,6.5,38.8-9.8,8.6-22.7,11.7-99.8-28.7-90.6Z"/>
</svg>